<svg width="70" height="70" viewBox="0 0 70 70" fill="none" xmlns="http://www.w3.org/2000/svg">
<circle cx="35" cy="35" r="35" fill="#E7EDFF"/>
<path d="M37.9357 34.843C42.0854 34.843 45.4609 31.5137 45.4609 27.4215C45.4609 23.3293 42.0854 20 37.9357 20C33.786 20 30.4099 23.3293 30.4099 27.4215C30.4099 31.5137 33.786 34.843 37.9357 34.843ZM37.0444 23.0592V22.8576C37.0444 22.3719 37.4431 21.9787 37.9357 21.9787C38.4277 21.9787 38.827 22.3719 38.827 22.8576V23.0604C39.8875 23.2848 40.6855 24.2164 40.6855 25.3285C40.6855 25.8137 40.2862 26.2074 39.7943 26.2074C39.3017 26.2074 38.903 25.8137 38.903 25.3285C38.903 25.0186 38.6469 24.766 38.3326 24.766H37.5334C37.2191 24.766 36.963 25.0186 36.963 25.3285C36.963 25.5061 37.0492 25.6748 37.1942 25.7803L37.9357 26.3217L39.7372 27.6365C40.329 28.0684 40.6855 28.7592 40.6903 29.4858V29.494C40.6944 30.1139 40.4538 30.6987 40.0117 31.1399C39.6837 31.4674 39.2738 31.6871 38.827 31.7797V31.9854C38.827 32.4711 38.4277 32.8643 37.9357 32.8643C37.4431 32.8643 37.0444 32.4711 37.0444 31.9854V31.7827C36.6095 31.6912 36.2096 31.4803 35.8864 31.1651C35.439 30.7297 35.1906 30.1485 35.1871 29.5285C35.1841 29.0434 35.5804 28.6473 36.0724 28.6444H36.0783C36.5679 28.6444 36.9666 29.0346 36.9696 29.518C36.9708 29.8213 37.2182 30.077 37.5429 30.077C38.0354 30.0741 37.852 30.0751 38.3409 30.0723C38.6573 30.0698 38.9102 29.8167 38.9078 29.5057V29.4975C38.9066 29.3217 38.8204 29.1541 38.6766 29.0492L37.9357 28.5084L36.1336 27.1936C35.537 26.7576 35.1805 26.0604 35.1805 25.3285C35.1805 24.2141 35.9809 23.2818 37.0444 23.0592Z" fill="#396AFF"/>
<path d="M25.7421 39.066C25.5136 38.6754 25.0061 38.5395 24.6076 38.7662L20.4153 41.1528C20.0183 41.3793 19.8821 41.88 20.1113 42.272L24.3961 49.5905C24.6254 49.9819 25.1329 50.1163 25.5305 49.8903L29.7229 47.5032C30.1205 47.2771 30.2561 46.7764 30.0269 46.3844L25.7421 39.066Z" fill="#396AFF"/>
<path d="M49.7638 37.6051C49.3604 37.0526 48.5796 36.9278 48.0199 37.3257C46.3218 38.5321 43.061 40.8489 42.8019 41.0335C42.6825 41.1337 42.5571 41.2245 42.4264 41.3048C41.9136 41.6229 41.3188 41.7929 40.6979 41.7929H36.4288C35.9368 41.7929 35.5375 41.3997 35.5375 40.9139C35.5375 40.4276 35.9374 40.035 36.4288 40.035H40.9944C41.6652 40.035 42.2024 39.4843 42.1744 38.8216C42.1483 38.1928 41.604 37.7053 40.9659 37.7053H37.4906C37.2553 37.4598 36.9974 37.2348 36.7211 37.0339C35.7711 36.343 34.597 35.9346 33.326 35.9346C31.0664 35.9346 28.8181 37.3385 27.8858 39.2124L31.5316 45.4392H38.3706C39.7134 45.4392 41.036 45.1005 42.2 44.4401C42.6034 44.2116 43.0354 43.9368 43.5036 43.6052C45.4656 42.2153 49.4768 39.3278 49.4798 39.326C50.0407 38.9288 50.1678 38.1577 49.7638 37.6051Z" fill="#396AFF"/>
</svg>
