<svg width="25" height="25" viewBox="0 0 25 25" fill="none" xmlns="http://www.w3.org/2000/svg">
<path d="M16.8645 2.08325H8.13533C4.34367 2.08325 2.08325 4.34367 2.08325 8.13533V16.8541C2.08325 20.6562 4.34367 22.9166 8.13533 22.9166H16.8541C20.6458 22.9166 22.9062 20.6562 22.9062 16.8645V8.13533C22.9166 4.34367 20.6562 2.08325 16.8645 2.08325ZM9.4895 17.6041C9.4895 17.8958 9.26033 18.1249 8.96867 18.1249H6.06242C5.77075 18.1249 5.54159 17.8958 5.54159 17.6041V12.7916C5.54159 12.1353 6.07284 11.6041 6.72909 11.6041H8.96867C9.26033 11.6041 9.4895 11.8333 9.4895 12.1249V17.6041ZM14.4687 17.6041C14.4687 17.8958 14.2395 18.1249 13.9478 18.1249H11.0416C10.7499 18.1249 10.5208 17.8958 10.5208 17.6041V8.06242C10.5208 7.40617 11.052 6.87492 11.7083 6.87492H13.2916C13.9478 6.87492 14.4791 7.40617 14.4791 8.06242V17.6041H14.4687ZM19.4583 17.6041C19.4583 17.8958 19.2291 18.1249 18.9374 18.1249H16.0312C15.7395 18.1249 15.5103 17.8958 15.5103 17.6041V13.9062C15.5103 13.6145 15.7395 13.3853 16.0312 13.3853H18.2708C18.927 13.3853 19.4583 13.9166 19.4583 14.5728V17.6041Z" fill="#1A16F3"/>
</svg>
