<svg width="70" height="70" viewBox="0 0 70 70" fill="none" xmlns="http://www.w3.org/2000/svg">
<ellipse cx="35.002" cy="35" rx="34.998" ry="35" fill="#FFD9D9"/>
<g clip-path="url(#clip0_6_174)">
<path d="M29.9922 25.625H40.0116L42.174 23.895C42.9102 23.3075 43.1852 22.3538 42.8739 21.4638C42.5627 20.5737 41.754 20 40.8141 20H29.1897C28.2498 20 27.441 20.575 27.1298 21.4638C26.8186 22.3525 27.0936 23.3075 27.8285 23.8938L29.9922 25.625Z" fill="#F46E6E"/>
<path d="M40.1828 27.5H29.8209C26.4073 30.8512 23.7524 36.7312 23.7524 41.5625C23.7524 45.7612 25.9748 50 30.9395 50H39.3766C43.6176 50 46.2512 46.7663 46.2512 41.5625C46.2512 36.7312 43.5963 30.8512 40.1828 27.5ZM34.5268 37.8125H35.4768C36.938 37.8125 38.1266 39.0013 38.1266 40.4625C38.1266 41.7763 37.1792 42.8575 35.9393 43.0775V44.0613C35.9393 44.5788 35.5193 44.9988 35.0018 44.9988C34.4843 44.9988 34.0644 44.5788 34.0644 44.0613V43.125H32.8144C32.297 43.125 31.877 42.705 31.877 42.1875C31.877 41.67 32.297 41.25 32.8144 41.25H35.4768C35.9043 41.25 36.2517 40.9025 36.2517 40.475C36.2517 40.035 35.9043 39.6875 35.4768 39.6875H34.5268C33.0657 39.6875 31.877 38.4988 31.877 37.0375C31.877 35.7238 32.8244 34.6425 34.0644 34.4225V33.4375C34.0644 32.92 34.4843 32.5 35.0018 32.5C35.5193 32.5 35.9393 32.92 35.9393 33.4375V34.375H37.1892C37.7067 34.375 38.1266 34.795 38.1266 35.3125C38.1266 35.83 37.7067 36.25 37.1892 36.25H34.5268C34.0994 36.25 33.7519 36.5975 33.7519 37.025C33.7519 37.465 34.0994 37.8125 34.5268 37.8125V37.8125Z" fill="#F46E6E"/>
</g>
<defs>
<clipPath id="clip0_6_174">
<rect width="29.9983" height="30" fill="white" transform="translate(20.0027 20)"/>
</clipPath>
</defs>
</svg>
