<svg width="70" height="70" viewBox="0 0 70 70" fill="none" xmlns="http://www.w3.org/2000/svg">
<circle cx="35" cy="35" r="35" fill="#FFE0EB"/>
<path d="M45.1322 20C43.4163 20 42.0253 21.391 42.0253 23.1069V32.3773H47.3602C47.8456 32.3773 48.2391 31.9838 48.2391 31.4984V23.1069C48.2391 21.391 46.8481 20 45.1322 20V20Z" fill="#FF82AC"/>
<path d="M30.6266 42.0898C30.6266 36.7805 34.9456 32.4076 40.326 32.4223V23.4855C40.326 22.1486 40.8293 20.9271 41.6559 20H26.154C23.7318 20 21.7607 21.9711 21.7607 24.3934V49.1053C21.7607 49.8959 22.7279 50.2844 23.2747 49.7129L24.3992 48.5387L25.5869 49.727C25.9296 50.0697 26.4863 50.0697 26.8296 49.727L27.9552 48.602L29.0919 49.7293C29.4347 50.0691 29.9872 50.0691 30.33 49.7293L31.4849 48.5844L32.6404 49.7293C32.9826 50.0691 33.5345 50.0691 33.8773 49.7299L34.1011 49.5084C31.9219 47.6864 30.6266 44.9923 30.6266 42.0898ZM28.8708 27.0898H30.6054V25.3552C30.6054 24.8698 30.9989 24.4763 31.4843 24.4763C31.9697 24.4763 32.3632 24.8698 32.3632 25.3552V27.0898H34.0978C34.5832 27.0898 34.9767 27.4834 34.9767 27.9688C34.9767 28.4541 34.5832 28.8477 34.0978 28.8477H32.3632V30.5823C32.3632 31.0677 31.9697 31.4612 31.4843 31.4612C30.9989 31.4612 30.6054 31.0677 30.6054 30.5823V28.8477H28.8708C28.3854 28.8477 27.9919 28.4541 27.9919 27.9688C27.9919 27.4834 28.3854 27.0898 28.8708 27.0898ZM26.2108 33.2451H32.1288C32.6142 33.2451 33.0078 33.6386 33.0078 34.124C33.0078 34.6094 32.6142 35.0029 32.1288 35.0029H26.2108C25.7254 35.0029 25.3319 34.6094 25.3319 34.124C25.3319 33.6386 25.7254 33.2451 26.2108 33.2451ZM29.1434 42.0283H26.205C25.7196 42.0283 25.3261 41.6348 25.3261 41.1494C25.3261 40.664 25.7196 40.2705 26.205 40.2705H29.1434C29.6288 40.2705 30.0223 40.664 30.0223 41.1494C30.0223 41.6348 29.6288 42.0283 29.1434 42.0283ZM29.7294 38.5186H26.2078C25.7224 38.5186 25.3289 38.125 25.3289 37.6396C25.3289 37.1543 25.7224 36.7607 26.2078 36.7607H29.7294C30.2148 36.7607 30.6083 37.1543 30.6083 37.6396C30.6083 38.125 30.2148 38.5186 29.7294 38.5186Z" fill="#FF82AC"/>
<path d="M40.2946 34.1797C35.9329 34.1797 32.3844 37.7282 32.3844 42.0898C32.3844 46.4515 35.9329 50 40.2946 50C44.6562 50 48.2047 46.4515 48.2047 42.0898C48.2047 37.7282 44.6562 34.1797 40.2946 34.1797ZM41.1762 45.4747V45.5583C41.1762 46.0437 40.7827 46.4372 40.2973 46.4372C39.8119 46.4372 39.4184 46.0437 39.4184 45.5583V45.5434C39.0247 45.4496 38.6594 45.2945 38.3698 45.105C37.9636 44.8392 37.8497 44.2946 38.1155 43.8883C38.3812 43.482 38.9259 43.3682 39.3322 43.634C39.6919 43.8693 40.2848 43.9587 40.5763 43.8216C40.7651 43.7327 40.9113 43.543 40.9316 43.3603C40.9751 42.9712 40.3654 42.7541 40.0014 42.6103C39.4505 42.3927 38.7648 42.1219 38.3668 41.4033C37.7994 40.3791 38.2963 39.0287 39.4184 38.5669V38.5227C39.4184 38.0373 39.8119 37.6437 40.2973 37.6437C40.7779 37.6437 41.1678 38.0296 41.1755 38.5084C41.4919 38.6073 41.7833 38.7655 42.0166 38.9807C42.3735 39.3098 42.3959 39.8658 42.0668 40.2226C41.7377 40.5795 41.1816 40.6019 40.8248 40.2728C40.6803 40.1394 40.2347 40.0856 40.041 40.2156C39.9108 40.3031 39.8598 40.4709 39.9044 40.5514C40.09 40.8865 41.0621 41.0013 41.7977 41.5746C43.3005 42.7457 42.7776 44.8604 41.1762 45.4747Z" fill="#FF82AC"/>
</svg>
