<svg width="70" height="70" viewBox="0 0 70 70" fill="none" xmlns="http://www.w3.org/2000/svg">
<circle cx="35" cy="35" r="35" fill="#DCFAF8"/>
<g clip-path="url(#clip0_1_2427)">
<path d="M47.9817 34.3653H46.1974C45.7912 33.2291 45.1367 32.2118 44.299 31.3801L47.0508 30.1654C47.4439 29.9918 47.6592 29.5581 47.5474 29.1433C47.2156 27.9118 46.0954 27.0059 44.7647 27.0059H42.495C41.1899 27.0059 40.0879 27.8776 39.7329 29.073H37.3358C36.4356 32.3986 33.3945 34.8522 29.7912 34.8522C27.5916 34.8522 25.6017 33.9377 24.1802 32.4691C23.7798 33.0403 23.4518 33.6664 23.2101 34.3342C22.4922 34.1771 21.9018 33.6092 21.7368 32.8697C21.6311 32.3959 21.161 32.0972 20.6875 32.2033C20.2138 32.3091 19.9154 32.7788 20.0212 33.2526C20.201 34.0581 20.6534 34.7894 21.295 35.3118C21.7342 35.6693 22.2506 35.9182 22.7977 36.0431C22.7551 36.378 22.7331 36.7195 22.7331 37.0661V37.9182C22.7331 41.1482 24.6401 43.9303 27.3845 45.191V47.1279C27.3845 48.182 28.2391 49.0366 29.2932 49.0366C30.3474 49.0366 31.202 48.182 31.202 47.1279V45.9113H38.3523V47.1279C38.3523 48.182 39.2069 49.0366 40.2611 49.0366C41.3153 49.0366 42.1699 48.182 42.1699 47.1279V45.1165C44.1765 44.1404 45.7131 42.3424 46.3466 40.1577H47.9816C49.0963 40.1577 50 39.2498 50 38.1298V36.3932C50.0001 35.2732 49.0964 34.3653 47.9817 34.3653ZM41.4963 34.8728C41.0127 34.8728 40.6206 34.4807 40.6206 33.997C40.6206 33.5133 41.0126 33.1213 41.4963 33.1213C41.98 33.1213 42.3721 33.5133 42.3721 33.997C42.3721 34.4807 41.98 34.8728 41.4963 34.8728Z" fill="#16DBCC"/>
<path d="M29.7913 20.9634C26.4508 20.9634 23.7332 23.6844 23.7332 27.0289C23.7332 30.3734 26.4509 33.0944 29.7913 33.0944C33.1318 33.0944 35.8494 30.3734 35.8494 27.0289C35.8494 23.6843 33.1317 20.9634 29.7913 20.9634ZM29.2288 26.1021H30.3539C31.623 26.1021 32.6555 27.1353 32.6555 28.4054C32.6555 29.5679 31.7901 30.5315 30.6702 30.6863V31.0164C30.6702 31.5018 30.2767 31.8953 29.7913 31.8953C29.3059 31.8953 28.9124 31.5018 28.9124 31.0164V30.7085H28.6882C27.7172 30.7085 26.9271 29.9181 26.9271 28.9465C26.9271 28.4611 27.3206 28.0676 27.806 28.0676C28.2914 28.0676 28.6849 28.4611 28.6849 28.9465L30.3538 28.9507C30.6537 28.9507 30.8976 28.706 30.8976 28.4053C30.8976 28.1046 30.6537 27.8599 30.3538 27.8599H29.2287C27.9596 27.8599 26.9271 26.8267 26.9271 25.5567C26.9271 24.3941 27.7924 23.4306 28.9124 23.2758V23.0414C28.9124 22.5561 29.3059 22.1625 29.7913 22.1625C30.2767 22.1625 30.6702 22.5561 30.6702 23.0414V23.2534H30.8944C31.8654 23.2534 32.6555 24.0439 32.6555 25.0155C32.6555 25.5009 32.262 25.8944 31.7766 25.8944C31.2912 25.8944 30.8977 25.5009 30.8977 25.0155C30.8977 25.0141 30.8976 25.0135 30.8976 25.0135L29.2288 25.0113C28.9289 25.0113 28.685 25.2559 28.685 25.5567C28.685 25.8574 28.9289 26.1021 29.2288 26.1021Z" fill="#16DBCC"/>
</g>
<defs>
<clipPath id="clip0_1_2427">
<rect width="30" height="30" fill="white" transform="translate(20 20)"/>
</clipPath>
</defs>
</svg>
