<svg width="61" height="55" viewBox="0 0 61 55" fill="none" xmlns="http://www.w3.org/2000/svg">
<rect x="0.0136719" width="60.9863" height="55" rx="20" fill="#DCFAF8"/>
<g clip-path="url(#clip0_1_2297)">
<path d="M43.6706 28.0972C43.1898 28.0452 42.7533 28.3551 42.6958 28.7889C41.9749 34.2357 36.8311 38.3433 30.7309 38.3433C25.2442 38.3433 20.5324 35.0205 19.1151 30.3894L20.1644 30.9091C20.589 31.1194 21.1223 30.9794 21.3553 30.5966C21.5885 30.2137 21.4334 29.7327 21.0088 29.5224L18.3172 28.1892C17.8931 27.9791 17.3602 28.1186 17.1267 28.5009L15.6464 30.9252C15.4128 31.3079 15.5674 31.7889 15.9915 31.9996C16.4296 32.1844 16.9303 32.0936 17.1829 31.6884L17.526 31.1267C19.264 36.2682 24.5713 39.9253 30.7309 39.9253C37.7189 39.9253 43.6115 35.2182 44.4374 28.9763C44.495 28.5425 44.1514 28.1489 43.6706 28.0972Z" fill="#16DBCC"/>
<path d="M44.9455 21.8097C44.501 21.6369 43.9848 21.8217 43.793 22.2229L43.5166 22.8005C42.653 20.8962 41.267 19.192 39.4817 17.8726C37.0238 16.0556 33.916 15.0551 30.7308 15.0551C27.5456 15.0551 24.4379 16.0556 21.9797 17.8726C19.5556 19.6643 17.8663 22.1651 17.2231 24.9138C17.123 25.3412 17.4263 25.7608 17.9003 25.851C18.3736 25.9413 18.8395 25.6679 18.9393 25.2405C19.5005 22.8426 20.9752 20.6605 23.0916 19.096C25.2369 17.5103 27.9499 16.6371 30.7308 16.6371C33.5115 16.6371 36.2246 17.5103 38.3698 19.096C40.0187 20.3146 41.2777 21.9084 42.0191 23.6869L40.9086 23.2562C40.4636 23.0838 39.9477 23.269 39.7563 23.6702C39.5649 24.0715 39.7704 24.5366 40.2154 24.7092L43.0367 25.8037C43.5168 25.9827 43.9844 25.7998 44.1888 25.3902L45.4037 22.8491C45.5956 22.4481 45.3905 21.9828 44.9455 21.8097Z" fill="#16DBCC"/>
<path d="M36.1366 21.6711C36.3883 21.2132 36.4269 20.6941 36.2458 20.2098C36.0647 19.7255 35.6853 19.3339 35.1775 19.1069C34.1291 18.6385 32.8539 19.0266 32.3343 19.9719C32.2208 20.1787 32.1509 20.3979 32.1248 20.6207C31.4474 20.5645 30.7587 20.6214 30.0913 20.7946C28.7628 21.139 27.6329 21.9139 26.9097 22.9762L24.5413 26.455C24.225 26.4039 23.8979 26.4251 23.585 26.5203C23.0955 26.6692 22.6997 26.9811 22.4706 27.3982L22.3143 27.6823C21.8411 28.5437 22.233 29.592 23.1885 30.0188L28.3154 32.3099C27.8106 33.257 28.0367 34.3214 29.3469 34.9159C30.4956 35.3414 31.7742 34.9245 32.2708 34.0775L32.8128 34.3195C33.0837 34.4406 33.3756 34.5018 33.6693 34.5018C33.8774 34.5018 34.0864 34.4711 34.2892 34.4093C34.7785 34.2606 35.1743 33.9487 35.4037 33.5314L35.5597 33.2473C35.789 32.83 35.8244 32.3573 35.6593 31.9158C35.5537 31.6336 35.3742 31.386 35.1376 31.1899L36.7721 27.3834C37.2711 26.2208 37.2702 24.9406 36.7696 23.7788C36.5181 23.195 36.151 22.6664 35.6912 22.2143C35.8719 22.0606 36.0231 21.8779 36.1366 21.6711ZM34.234 20.487C34.4375 20.487 34.6024 20.6358 34.6024 20.8191C34.6024 21.0026 34.4375 21.1512 34.234 21.1512C34.0307 21.1512 33.8658 21.0024 33.8658 20.8191C33.8658 20.6358 34.0307 20.487 34.234 20.487ZM30.4732 33.5195C30.3581 33.5547 30.2347 33.5471 30.1258 33.4984C30.0168 33.4498 29.9355 33.3658 29.8967 33.262C29.8663 33.1808 29.8651 33.0949 29.8919 33.0146L30.6945 33.3732C30.6395 33.441 30.5632 33.4923 30.4732 33.5195ZM35.1362 26.8122L33.3557 30.9584C33.1052 31.4707 33.3448 32.0771 33.9064 32.3284H33.9067C33.9982 32.3725 34.0318 32.4631 33.988 32.5451L33.8317 32.8292C33.7794 32.9116 33.6862 32.9386 33.5917 32.9021L23.9674 28.6014C23.8787 28.5619 23.8422 28.4646 23.886 28.3849L24.0423 28.1009C24.0845 28.0306 24.1665 27.9808 24.2826 28.0277C24.5624 28.1528 24.8794 28.1719 25.1754 28.0821C25.4548 27.9971 25.6839 27.8242 25.8252 27.5929L28.4045 23.8041C28.8981 23.079 29.6694 22.55 30.5762 22.3148C31.4828 22.0796 32.4478 22.158 33.2929 22.5358C33.2931 22.5358 33.2931 22.5358 33.2934 22.536C33.2936 22.536 33.2936 22.536 33.2938 22.5362C34.1392 22.914 34.7929 23.5588 35.1346 24.3518C35.4763 25.1449 35.4768 26.0187 35.1362 26.8122Z" fill="#16DBCC"/>
</g>
<defs>
<clipPath id="clip0_1_2297">
<rect width="29.9387" height="27" fill="white" transform="translate(15.5375 14)"/>
</clipPath>
</defs>
</svg>
